<!DOCTYPE svg PUBLIC "-//W3C//DTD SVG 20010904//EN" "http://www.w3.org/TR/2001/REC-SVG-20010904/DTD/svg10.dtd">
<svg version="1.0" xmlns="http://www.w3.org/2000/svg" width="59px" height="44px" viewBox="0 0 590 440" preserveAspectRatio="xMidYMid meet">
<g id="layer101" fill="#2b3023" stroke="none">
<path d="M147 433 c-12 -12 -8 -20 18 -31 54 -25 15 -44 -42 -20 -41 17 -50 17 -88 7 -23 -7 -33 -15 -32 -28 0 -10 6 -18 12 -18 78 1 91 -19 46 -65 -18 -18 -34 -43 -37 -55 -4 -13 -9 -23 -13 -23 -4 0 -6 -15 -3 -32 5 -36 29 -71 44 -62 5 3 18 -6 30 -21 19 -25 24 -26 72 -20 52 7 91 33 106 70 7 16 9 17 9 3 1 -9 -10 -29 -24 -44 -33 -35 -32 -48 3 -39 57 15 60 14 72 -16 14 -33 11 -32 44 -20 18 7 28 6 36 -5 14 -16 77 -19 99 -5 31 20 15 174 -23 221 -16 20 -15 30 11 66 12 17 19 35 15 39 -4 4 2 6 13 5 45 -5 75 1 75 14 0 7 -10 16 -22 19 -30 8 -105 -12 -112 -29 -8 -21 -26 -17 -26 6 0 13 -9 22 -27 26 -16 3 -39 9 -53 14 -36 11 -78 11 -85 0 -4 -6 -11 -8 -16 -4 -5 3 -6 10 -3 16 4 6 3 8 -3 5 -5 -3 -22 3 -39 14 -31 20 -46 23 -57 12z"/>
</g>
<g id="layer102" fill="#612b15" stroke="none">
<path d="M150 427 c0 -8 11 -20 25 -27 14 -8 24 -18 22 -24 -5 -13 -81 -9 -85 5 -2 5 -10 9 -18 9 -9 0 -12 -4 -9 -10 8 -13 -1 -13 -25 0 -22 12 -50 3 -50 -15 0 -7 7 -16 16 -19 24 -9 66 -7 59 3 -10 17 14 23 35 8 20 -14 20 -14 -1 -33 -22 -19 -22 -19 -15 6 6 19 5 21 -3 10 -6 -8 -7 -25 -4 -38 3 -15 1 -27 -8 -33 -22 -14 -33 -10 -19 6 7 8 10 15 7 15 -4 0 -18 -17 -32 -37 -38 -57 -31 -165 8 -123 9 10 9 11 0 6 -6 -3 -14 -2 -18 3 -7 12 25 52 37 45 4 -3 8 2 8 10 0 9 5 16 11 16 6 0 17 7 26 15 22 23 24 15 7 -33 -10 -31 -11 -48 -4 -62 11 -21 1 -27 -16 -10 -8 8 -14 7 -22 -3 -21 -25 10 -52 57 -50 47 2 104 31 97 50 -3 7 -1 12 4 10 5 -1 15 7 23 17 11 15 16 16 22 6 5 -9 4 -11 -3 -6 -10 6 -14 -2 -12 -30 1 -3 -9 -13 -21 -23 -37 -30 -19 -43 29 -21 35 16 42 17 43 5 3 -30 4 -34 16 -46 10 -10 18 -10 38 -1 21 10 25 9 25 -3 0 -18 0 -18 43 0 71 29 85 87 42 171 -14 27 -25 52 -25 57 0 4 -9 16 -19 26 -18 18 -20 18 -24 3 -2 -9 -2 -3 0 14 8 70 -55 69 -113 -1 -35 -44 -66 -57 -80 -34 -4 7 3 10 22 7 15 -2 29 2 31 9 3 9 -10 12 -45 10 -28 -1 -49 -4 -47 -7 2 -4 -5 -12 -17 -19 -11 -7 -17 -8 -13 -2 3 6 -4 15 -17 20 -21 9 -21 10 -3 11 17 2 16 3 -5 9 -25 7 -25 7 -4 19 18 9 24 9 34 -3 14 -16 55 -21 45 -5 -3 5 -12 7 -19 4 -7 -3 -16 3 -20 12 -8 20 -9 20 31 27 28 6 35 3 48 -21 15 -26 16 -26 9 -2 -4 14 -8 30 -11 35 -4 11 50 11 90 1 12 -3 29 -1 36 4 19 11 -49 25 -87 17 -20 -4 -37 2 -66 24 -43 31 -66 37 -66 16z m239 -100 c-2 -1 -15 -11 -28 -22 l-24 -20 14 23 c8 12 20 22 28 22 8 0 12 -1 10 -3z m71 -134 c0 -18 -4 -33 -9 -33 -17 0 -20 15 -14 54 7 44 23 29 23 -21z m-293 -38 c2 -21 0 -34 -6 -31 -5 3 -11 24 -13 46 -2 23 0 36 6 30 5 -5 10 -25 13 -45z m93 26 c0 -12 -20 -25 -27 -18 -7 7 6 27 18 27 5 0 9 -4 9 -9z m163 -51 c8 -8 8 -11 0 -6 -6 3 -22 2 -36 -3 -30 -12 -43 -3 -20 14 20 15 39 13 56 -5z m70 -51 c-14 -14 -52 -19 -58 -8 -4 5 3 9 14 9 11 0 26 10 33 23 11 20 12 20 16 3 2 -10 0 -22 -5 -27z"/>
<path d="M535 370 c-3 -5 -20 -10 -36 -10 -19 0 -31 -6 -35 -17 -3 -10 -10 -26 -15 -35 -7 -14 -5 -18 6 -18 8 0 15 9 15 19 0 26 15 34 68 35 27 1 47 6 49 14 3 6 -2 12 -11 12 -9 0 -16 -4 -16 -10 0 -5 -7 -10 -16 -10 -14 0 -14 3 -4 15 7 8 10 15 7 15 -3 0 -9 -4 -12 -10z"/>
</g>
<g id="layer103" fill="#18316c" stroke="none">
<path d="M310 300 c-43 -46 -52 -52 -76 -46 -22 6 -25 9 -13 17 8 5 9 9 2 9 -6 0 -20 3 -30 7 -10 3 -15 3 -11 -2 4 -4 0 -14 -10 -22 -16 -13 -15 -14 6 -10 l22 5 -20 -28 c-17 -24 -19 -35 -11 -69 7 -33 6 -41 -5 -41 -8 0 -14 6 -15 13 -1 29 -8 70 -12 74 -8 7 -19 -75 -12 -87 8 -13 -8 -13 -22 1 -8 8 -13 8 -18 0 -10 -17 4 -51 23 -53 61 -5 137 24 128 49 -3 7 -1 12 4 10 5 -1 15 7 23 17 11 15 16 16 22 6 5 -9 4 -11 -3 -6 -10 6 -14 -2 -12 -30 1 -3 -9 -13 -21 -23 -37 -30 -19 -43 29 -21 43 19 49 17 44 -22 -1 -3 5 -12 14 -19 11 -9 20 -9 40 0 19 8 30 8 39 1 9 -7 20 -7 38 1 44 20 39 34 -9 31 l-43 -4 12 31 c14 37 8 45 -26 32 -29 -11 -47 2 -19 15 36 16 62 5 62 -26 0 -28 38 -32 52 -7 l12 22 7 -25 c6 -22 7 -21 8 11 1 20 -10 57 -24 85 -14 27 -25 55 -25 62 0 6 -4 12 -10 12 -5 0 -18 17 -27 38 -27 57 -55 55 -113 -8z m89 21 c10 -7 5 -11 -18 -16 -17 -3 -31 -11 -31 -17 0 -6 -3 -9 -6 -6 -7 8 18 48 31 48 5 0 16 -4 24 -9z m-42 -85 c8 -8 9 -13 12 -42 0 -8 5 -13 11 -9 5 3 7 12 3 20 -3 8 0 15 6 15 6 0 8 8 5 18 -5 13 -4 14 4 3 11 -15 8 -50 -5 -61 -5 -4 -22 -12 -40 -18 -24 -8 -33 -7 -36 2 -3 7 4 13 15 13 25 2 32 9 23 23 -5 8 -11 8 -21 -1 -17 -14 -44 -5 -44 16 0 18 17 20 22 3 5 -14 38 -3 38 13 0 9 -3 9 -14 0 -10 -9 -15 -8 -19 2 -5 14 26 17 40 3z m103 -43 c0 -18 -4 -33 -9 -33 -17 0 -20 15 -14 54 7 44 23 29 23 -21z m-200 -12 c0 -12 -20 -25 -27 -18 -7 7 6 27 18 27 5 0 9 -4 9 -9z"/>
<path d="M97 306 c4 -18 1 -31 -8 -37 -22 -14 -33 -10 -19 6 7 8 10 15 7 15 -4 0 -18 -17 -32 -37 -38 -57 -31 -165 8 -123 9 10 9 11 0 6 -6 -3 -14 -2 -18 3 -7 12 25 52 37 45 4 -3 8 2 8 10 0 9 5 16 11 16 6 0 18 7 26 16 13 13 17 13 24 2 5 -7 9 -8 10 -3 0 6 2 18 4 29 2 12 -4 20 -18 24 -20 5 -20 6 -1 13 17 7 17 8 -4 8 -15 1 -21 5 -16 13 4 6 3 8 -4 4 -5 -3 -13 0 -16 6 -3 7 -3 0 1 -16z"/>
</g>
<g id="layer104" fill="#254d71" stroke="none">
<path d="M356 341 c-3 -5 10 -11 29 -13 27 -3 32 -1 23 9 -12 15 -44 17 -52 4z"/>
<path d="M96 305 c4 -23 0 -33 -15 -43 -23 -13 -28 -3 -9 16 7 7 9 12 5 12 -3 0 -18 -17 -32 -37 -38 -57 -31 -165 8 -123 9 10 9 11 0 6 -19 -10 -26 13 -9 30 9 9 13 21 9 27 -4 7 1 5 11 -3 18 -14 18 -13 11 19 -4 20 -3 31 2 28 10 -6 43 27 43 42 0 5 8 12 18 14 12 3 11 5 -6 6 -15 1 -21 5 -16 13 4 6 3 8 -4 4 -5 -3 -13 0 -15 6 -3 7 -3 0 -1 -17z"/>
<path d="M368 303 c-10 -2 -21 -15 -24 -28 -3 -13 -12 -26 -20 -29 -8 -3 -14 -13 -14 -21 0 -20 31 -16 38 5 5 13 3 13 -11 1 -10 -7 -17 -9 -17 -3 0 15 28 23 37 9 4 -7 9 -21 10 -31 5 -28 8 -29 29 -4 15 18 16 20 2 9 -12 -9 -18 -10 -18 -2 0 6 4 11 10 11 5 0 7 8 3 18 -4 11 1 8 15 -8 l22 -25 6 23 c9 31 24 9 24 -35 0 -23 -5 -33 -20 -38 -15 -5 -18 -11 -11 -23 4 -9 6 -22 4 -28 -2 -6 6 -14 19 -17 19 -5 20 -4 8 6 -8 7 -16 23 -18 37 l-3 25 17 -23 c9 -13 22 -21 29 -18 8 3 15 -4 18 -17 3 -14 5 -8 6 14 0 21 -9 56 -24 85 -14 27 -25 52 -25 56 0 4 -11 18 -24 32 -23 25 -33 28 -68 19z"/>
<path d="M184 281 c3 -5 -1 -11 -9 -15 -8 -3 -17 -1 -20 4 -4 6 -12 10 -18 10 -7 0 -3 -7 7 -15 11 -8 14 -15 8 -15 -7 0 -12 -8 -12 -17 0 -15 1 -15 13 -1 6 8 27 21 46 28 29 12 31 15 15 21 -27 11 -36 11 -30 0z"/>
<path d="M210 228 c-25 -13 -46 -23 -48 -24 -1 -1 1 -20 7 -43 7 -33 6 -41 -5 -41 -8 0 -14 6 -15 13 -1 29 -8 70 -12 74 -8 7 -19 -75 -12 -87 8 -13 -8 -13 -22 1 -8 8 -13 8 -18 0 -10 -17 4 -51 23 -53 62 -5 137 24 127 50 -2 7 -1 10 5 7 5 -3 14 4 20 15 6 11 15 18 21 15 5 -4 9 1 9 10 0 23 -19 56 -30 50 -4 -3 -6 4 -3 15 7 25 8 25 -47 -2z m50 -47 c0 -12 -20 -25 -27 -18 -7 7 6 27 18 27 5 0 9 -4 9 -9z"/>
<path d="M270 135 c0 -8 0 -17 0 -21 1 -3 -9 -13 -21 -23 -37 -30 -19 -43 29 -21 43 19 49 17 44 -22 -1 -3 5 -12 14 -19 11 -9 20 -9 40 0 19 8 30 8 39 1 9 -7 20 -7 38 1 44 20 39 34 -9 31 l-43 -4 12 31 c14 37 8 45 -26 32 -31 -12 -43 -3 -19 15 15 12 13 13 -16 10 -19 -1 -38 -9 -43 -17 -5 -8 -9 -9 -9 -3 0 7 -7 14 -15 18 -9 3 -15 0 -15 -9z"/>
</g>
<g id="layer105" fill="#615826" stroke="none">
<path d="M150 427 c0 -8 11 -20 25 -27 14 -8 24 -18 22 -24 -5 -13 -81 -9 -85 5 -2 5 -10 9 -18 9 -9 0 -12 -4 -9 -10 8 -13 -1 -13 -25 0 -22 12 -50 3 -50 -16 0 -8 3 -14 8 -15 42 -6 71 -5 69 3 -5 26 26 16 55 -16 17 -20 40 -36 50 -36 11 0 17 4 13 10 -3 5 -12 7 -19 4 -7 -3 -16 3 -20 12 -8 21 -7 22 31 30 27 5 33 2 47 -22 16 -27 16 -27 10 -4 -4 14 -8 30 -10 35 -6 15 88 18 97 3 4 -7 11 -9 14 -6 17 16 -10 29 -54 27 -45 -3 -81 9 -109 38 -17 17 -42 17 -42 0z"/>
<path d="M530 370 c-8 -5 -27 -11 -42 -15 -18 -3 -28 -12 -28 -23 0 -10 -5 -23 -12 -30 -9 -9 -8 -12 4 -12 10 0 18 10 20 23 2 12 9 21 16 19 8 -1 11 1 8 6 -3 4 16 8 41 8 28 -1 48 4 50 12 3 6 -2 12 -11 12 -9 0 -16 -4 -16 -10 0 -5 -7 -10 -16 -10 -14 0 -14 3 -4 15 14 17 12 18 -10 5z"/>
<path d="M96 305 c4 -23 0 -33 -15 -43 -23 -13 -28 -3 -9 16 7 7 9 12 5 12 -3 0 -18 -17 -32 -37 -38 -57 -31 -164 8 -123 9 9 8 11 -3 8 -10 -2 -16 6 -18 22 -2 20 9 38 47 77 27 28 55 53 63 56 7 3 3 6 -10 6 -15 1 -21 5 -16 13 4 6 3 8 -4 4 -5 -3 -13 0 -15 6 -3 7 -3 0 -1 -17z"/>
<path d="M368 303 c-10 -2 -21 -15 -24 -28 -3 -13 -12 -26 -20 -29 -8 -3 -14 -13 -14 -21 0 -20 31 -16 38 5 5 13 3 13 -11 1 -10 -7 -17 -9 -17 -3 0 16 27 22 38 9 11 -13 12 -17 12 -44 0 -14 2 -14 20 2 14 13 17 22 10 29 -14 14 -12 26 3 20 10 -3 13 5 13 31 -1 35 -7 39 -48 28z"/>
<path d="M250 280 c0 -5 7 -10 15 -10 8 0 15 5 15 10 0 6 -7 10 -15 10 -8 0 -15 -4 -15 -10z"/>
<path d="M168 262 c-16 -9 -28 -23 -28 -32 0 -12 2 -12 9 -1 5 7 26 21 47 31 27 13 33 19 19 19 -11 0 -32 -7 -47 -17z"/>
<path d="M445 253 c5 -10 10 -34 12 -53 2 -19 7 -42 10 -50 4 -8 7 -18 7 -22 1 -5 6 -8 11 -7 6 0 13 -10 17 -23 5 -19 6 -16 7 13 1 20 -10 57 -24 85 -14 27 -25 55 -25 62 0 6 -5 12 -11 12 -7 0 -8 -7 -4 -17z"/>
<path d="M212 210 c-12 -5 -29 -7 -37 -4 -17 7 -18 3 -6 -48 7 -30 6 -38 -5 -38 -8 0 -14 6 -15 13 -1 29 -8 70 -12 74 -8 7 -19 -75 -12 -87 8 -13 -8 -13 -22 1 -8 8 -13 8 -18 0 -10 -17 4 -51 23 -53 61 -5 137 24 128 49 -3 7 -1 12 4 10 5 -1 16 7 24 18 15 19 16 18 5 -10 -6 -18 -6 -26 0 -20 5 6 13 22 16 38 8 29 -10 38 -33 15 -6 -6 -15 -9 -19 -5 -4 4 -1 13 5 19 13 13 16 38 5 37 -5 0 -18 -4 -31 -9z"/>
<path d="M325 108 c-16 -17 -24 -28 -17 -24 7 4 12 1 13 -8 3 -31 4 -35 16 -47 10 -10 18 -10 39 0 19 8 30 9 39 1 9 -7 20 -7 38 1 44 20 39 34 -10 30 -42 -3 -44 -2 -34 17 19 35 14 54 -11 47 -36 -11 -43 -11 -40 3 3 17 1 16 -33 -20z"/>
</g>
<g id="layer106" fill="#a33b15" stroke="none">
<path d="M150 427 c0 -7 12 -19 26 -26 32 -14 26 -37 -10 -34 -14 1 -26 -2 -26 -7 0 -4 15 -6 33 -4 17 3 40 5 49 6 12 2 14 6 7 14 -7 8 -6 14 3 18 7 3 4 4 -7 1 -14 -3 -23 2 -30 18 -11 25 -45 36 -45 14z"/>
<path d="M368 303 c-10 -2 -21 -15 -24 -28 -3 -13 -12 -26 -20 -29 -8 -3 -14 -13 -14 -21 0 -20 31 -16 38 5 5 13 3 13 -11 1 -10 -7 -17 -9 -17 -3 0 16 27 22 38 9 11 -13 12 -17 12 -44 0 -14 2 -14 20 2 14 13 17 22 10 29 -14 14 -13 26 3 21 8 -4 12 6 12 30 0 36 -6 39 -47 28z"/>
<path d="M173 260 c-18 -11 -33 -25 -33 -32 0 -10 2 -10 9 1 5 7 26 21 47 31 22 10 32 19 24 19 -8 1 -30 -8 -47 -19z"/>
<path d="M212 209 c-13 -5 -28 -7 -32 -4 -15 9 -19 -10 -10 -48 6 -29 5 -37 -6 -37 -8 0 -14 6 -15 13 -1 29 -8 70 -12 74 -12 11 -18 -79 -7 -93 11 -12 10 -13 -6 -7 -10 3 -22 11 -25 16 -3 5 -9 1 -12 -8 -4 -9 -1 -18 8 -21 8 -4 13 -9 11 -13 -2 -3 11 -7 30 -8 19 -1 32 2 30 6 -3 4 9 16 25 26 26 18 44 45 19 30 -15 -10 -12 -2 15 35 37 50 34 58 -13 39z"/>
<path d="M450 63 c-58 -6 -66 -12 -42 -28 16 -12 26 -13 46 -4 14 7 27 18 30 25 3 8 4 13 3 12 -1 0 -18 -3 -37 -5z"/>
</g>
<g id="layer107" fill="#5c624e" stroke="none">
<path d="M23 383 c-18 -7 -16 -30 3 -37 25 -10 29 -7 9 7 -14 11 -15 16 -5 22 9 5 11 4 6 -3 -5 -8 -2 -10 8 -6 9 3 13 10 10 15 -6 10 -12 10 -31 2z"/>
<path d="M85 266 c-17 -13 -33 -22 -37 -20 -14 9 -29 -37 -26 -78 2 -26 9 -43 18 -46 12 -4 13 -3 2 10 -12 15 -14 78 -2 75 8 -2 85 72 79 77 -3 3 -18 -6 -34 -18z"/>
<path d="M356 264 c10 -8 12 -12 4 -8 -9 4 -12 3 -7 -2 5 -5 21 -9 37 -10 26 -1 28 1 19 17 -6 13 -21 19 -41 19 -31 0 -31 -1 -12 -16z"/>
<path d="M212 209 c-13 -5 -27 -7 -31 -5 -9 6 -7 -46 2 -61 5 -7 -1 -16 -12 -22 -16 -9 -20 -7 -24 7 -4 13 -5 12 -6 -5 -1 -17 -5 -21 -18 -16 -10 4 -21 11 -24 16 -3 5 -9 1 -12 -8 -4 -9 -1 -18 8 -21 8 -4 13 -9 11 -13 -2 -3 11 -7 30 -8 19 -1 32 2 30 6 -3 4 9 16 25 26 26 18 44 45 19 30 -15 -10 -12 -2 15 35 37 50 34 58 -13 39z"/>
<path d="M257 173 c-4 -3 -7 -13 -7 -22 1 -13 3 -12 11 3 9 15 13 16 20 5 7 -11 9 -10 9 4 0 17 -20 23 -33 10z"/>
<path d="M325 108 c-24 -25 -26 -28 -8 -19 13 6 27 20 33 31 14 27 10 25 -25 -12z"/>
<path d="M330 55 c0 -18 4 -23 15 -19 8 4 15 15 15 25 0 10 -7 19 -15 19 -9 0 -15 -9 -15 -25z"/>
</g>
<g id="layer108" fill="#975f1d" stroke="none">
<path d="M150 426 c0 -16 27 -29 41 -20 13 8 -9 34 -27 34 -8 0 -14 -6 -14 -14z"/>
<path d="M201 379 c-13 -14 -26 -19 -40 -14 -12 3 -21 2 -21 -3 0 -6 15 -8 33 -6 17 3 40 5 49 6 12 2 14 6 7 14 -7 8 -6 14 3 17 9 4 10 6 1 6 -7 1 -21 -8 -32 -20z"/>
<path d="M10 365 c0 -8 2 -15 4 -15 2 0 13 -3 23 -6 17 -5 17 -5 0 6 -9 6 -15 15 -12 21 4 5 1 9 -4 9 -6 0 -11 -7 -11 -15z"/>
<path d="M470 350 c-8 -5 -11 -12 -8 -16 4 -3 14 1 23 10 18 17 9 21 -15 6z"/>
<path d="M355 265 c11 -9 13 -13 5 -9 -9 4 -12 3 -7 -2 5 -5 20 -9 33 -9 40 -1 25 29 -16 33 -34 3 -34 3 -15 -13z"/>
<path d="M210 206 c-35 -11 -46 -36 -27 -63 5 -7 1 -16 -12 -22 -16 -9 -20 -8 -24 7 -4 13 -5 12 -6 -5 -1 -17 -5 -21 -18 -16 -10 4 -21 11 -24 16 -3 5 -9 1 -12 -8 -4 -9 -1 -18 8 -21 8 -4 13 -9 11 -13 -2 -3 11 -7 30 -8 19 -1 32 2 30 6 -3 4 9 16 25 26 27 19 43 45 17 29 -13 -8 -6 5 26 48 25 35 20 39 -24 24z"/>
<path d="M460 196 c0 -13 7 -26 15 -29 11 -5 12 -1 5 17 -5 13 -6 27 -3 30 4 3 1 6 -5 6 -7 0 -12 -11 -12 -24z"/>
</g>
<g id="layer109" fill="#da601f" stroke="none">
<path d="M355 265 c11 -9 13 -13 5 -9 -11 5 -12 4 -5 -4 13 -14 57 -4 52 12 -2 6 -19 12 -38 14 -33 3 -33 3 -14 -13z"/>
<path d="M210 206 c-27 -8 -34 -16 -34 -35 0 -14 5 -26 11 -28 11 -4 70 64 62 71 -2 2 -20 -1 -39 -8z"/>
<path d="M138 118 c-6 -33 15 -38 48 -13 18 15 18 15 -8 9 -20 -4 -27 -2 -30 13 -3 13 -5 11 -10 -9z"/>
</g>
<g id="layer110" fill="#638377" stroke="none">
<path d="M150 425 c0 -8 2 -15 4 -15 2 0 11 -3 20 -6 10 -4 16 -1 16 9 0 8 -7 18 -16 21 -22 9 -24 8 -24 -9z"/>
<path d="M220 210 c-23 -5 -26 -11 -21 -40 2 -18 18 -11 36 16 20 30 18 33 -15 24z"/>
</g>
<g id="layer111" fill="#bb953d" stroke="none">
<path d="M150 432 c0 -10 22 -32 32 -32 15 0 8 28 -8 34 -21 8 -24 8 -24 -2z"/>
<path d="M220 208 c-31 -12 -32 -12 -24 -32 9 -23 19 -20 39 10 20 31 18 35 -15 22z"/>
<path d="M155 105 c-24 -11 -26 -14 -9 -14 11 -1 29 6 40 14 24 18 8 18 -31 0z"/>
</g>


</svg>