<!DOCTYPE svg PUBLIC "-//W3C//DTD SVG 20010904//EN" "http://www.w3.org/TR/2001/REC-SVG-20010904/DTD/svg10.dtd">
<svg version="1.0" xmlns="http://www.w3.org/2000/svg" width="10px" height="16px" viewBox="0 0 100 160" preserveAspectRatio="xMidYMid meet">
<g id="layer101" fill="#1f1d2e" stroke="none">
<path d="M17 149 c-13 -8 -17 -23 -17 -70 0 -54 2 -61 25 -71 19 -8 31 -8 50 0 23 10 25 17 25 71 0 49 -4 62 -19 71 -24 12 -41 12 -64 -1z"/>
</g>
<g id="layer102" fill="#932d2d" stroke="none">
<path d="M23 143 c-8 -3 -13 -23 -13 -52 l0 -46 40 0 40 0 0 46 c0 54 -22 71 -67 52z"/>
</g>
<g id="layer103" fill="#bf4c57" stroke="none">
<path d="M19 123 c-13 -35 -3 -84 17 -76 8 3 14 12 14 20 0 9 6 13 15 9 10 -4 15 1 15 15 0 11 -7 22 -15 25 -8 4 -15 12 -15 20 0 24 -20 15 -31 -13z"/>
</g>
<g id="layer104" fill="#84949d" stroke="none">
<path d="M21 31 c-19 -12 21 -25 50 -16 17 6 19 9 8 16 -8 5 -21 9 -29 9 -8 0 -21 -4 -29 -9z"/>
</g>
<g id="layer105" fill="#b0c2f6" stroke="none">
<path d="M23 114 c-7 -3 -13 -14 -13 -23 0 -13 8 -17 35 -17 30 1 35 4 33 21 -3 20 -30 29 -55 19z"/>
<path d="M32 33 c-18 -7 -4 -23 19 -23 12 0 19 5 17 12 -5 14 -18 18 -36 11z m25 -10 c-4 -3 -10 -3 -14 0 -3 4 0 7 7 7 7 0 10 -3 7 -7z"/>
</g>
<g id="layer106" fill="#ffffff" stroke="none">
<path d="M20 100 c-8 -5 -11 -12 -7 -17 5 -4 11 -2 15 4 4 6 16 13 27 16 l20 5 -20 1 c-11 0 -27 -3 -35 -9z"/>
</g>


</svg>