<!DOCTYPE svg PUBLIC "-//W3C//DTD SVG 20010904//EN" "http://www.w3.org/TR/2001/REC-SVG-20010904/DTD/svg10.dtd">
<svg version="1.0" xmlns="http://www.w3.org/2000/svg" width="35px" height="46px" viewBox="0 0 350 460" preserveAspectRatio="xMidYMid meet">
<g id="layer101" fill="#000000" stroke="none">
 <path d="M4 388 c7 -75 22 -133 57 -224 17 -44 19 -58 9 -93 -17 -63 -4 -71 123 -71 117 0 118 1 135 71 9 36 8 64 -3 128 -14 82 -11 123 15 211 5 19 10 38 10 42 0 5 -79 8 -176 8 l-177 0 7 -72z"/>
 </g>
<g id="layer102" fill="#222032" stroke="none">
 <path d="M14 383 c7 -70 23 -131 58 -219 16 -43 18 -59 9 -90 -9 -31 -8 -41 6 -56 13 -14 18 -16 25 -6 6 10 8 9 8 -2 0 -13 1 -13 10 0 9 13 10 13 10 0 0 -13 1 -13 10 0 9 13 10 13 10 0 0 -13 1 -13 10 0 9 13 10 13 10 0 0 -13 1 -13 10 0 9 13 10 13 10 0 0 -13 1 -13 10 0 9 13 10 13 10 0 0 -13 1 -13 10 0 9 13 10 13 10 0 0 -13 1 -13 10 0 9 13 10 13 10 0 0 -13 1 -13 10 0 7 11 10 12 10 2 0 -28 26 13 38 59 9 37 9 63 -3 128 -14 82 -11 123 15 211 5 19 10 36 10 37 0 2 -75 3 -166 3 l-166 0 6 -67z"/>
 </g>
<g id="layer103" fill="#4d4724" stroke="none">
 <path d="M14 383 c7 -70 23 -131 58 -219 16 -43 18 -59 9 -90 -9 -31 -8 -41 6 -56 13 -14 18 -16 25 -6 6 10 8 9 8 -2 0 -13 1 -13 10 0 9 13 10 13 10 0 0 -13 1 -13 10 0 9 13 10 13 10 0 0 -13 1 -13 10 0 9 13 10 13 10 0 0 -13 1 -13 10 0 9 13 10 13 10 0 0 -13 1 -13 10 0 9 13 10 13 10 0 0 -13 1 -13 10 0 9 13 10 13 10 0 0 -13 1 -13 10 0 9 13 10 13 10 0 0 -13 1 -13 10 0 7 11 10 12 10 2 0 -28 26 13 38 59 9 37 9 63 -3 128 -14 82 -11 123 15 211 5 19 10 36 10 37 0 2 -75 3 -166 3 l-166 0 6 -67z m226 20 c0 -35 30 -99 41 -89 2 3 3 -13 1 -35 -2 -22 3 -62 12 -90 10 -28 15 -53 13 -56 -6 -5 -30 68 -47 142 -6 27 -15 54 -19 60 -13 16 -22 105 -11 105 6 0 10 -17 10 -37z"/>
 </g>
<g id="layer104" fill="#78642f" stroke="none">
 <path d="M117 443 l-109 -4 8 -67 c4 -37 20 -105 37 -152 32 -91 36 -119 24 -163 l-7 -27 104 0 105 0 11 41 c10 37 8 49 -24 132 -39 101 -60 214 -44 235 6 6 9 11 7 10 -2 -1 -53 -4 -112 -5z m138 -313 c14 -6 -4 -9 -55 -9 -41 0 -82 4 -90 9 -19 12 116 12 145 0z m-88 -69 c37 -9 37 -9 -19 -10 -52 -1 -58 1 -58 19 0 17 3 19 19 10 11 -5 37 -14 58 -19z"/>
 <path d="M240 430 c0 -17 53 -116 56 -105 2 6 10 34 18 63 l15 52 -45 0 c-24 0 -44 -5 -44 -10z"/>
 <path d="M294 296 c-6 -15 15 -131 22 -123 2 2 -1 29 -7 60 -5 32 -7 62 -4 67 3 6 4 10 0 10 -3 0 -8 -6 -11 -14z"/>
 </g>
<g id="layer105" fill="#bd8960" stroke="none">
 <path d="M15 378 c6 -61 21 -120 51 -203 l15 -41 67 4 c37 2 83 0 102 -5 32 -9 35 -13 32 -43 -1 -18 -10 -39 -20 -46 -16 -13 -16 -13 0 -14 12 0 21 13 28 41 10 37 8 49 -24 132 -19 51 -37 108 -40 127 -3 19 -8 52 -11 73 l-6 37 -100 0 -101 0 7 -62z"/>
 <path d="M273 390 l22 -52 13 32 c19 47 12 64 -25 68 l-32 3 22 -51z"/>
 </g>

</svg>