<!DOCTYPE svg PUBLIC "-//W3C//DTD SVG 20010904//EN" "http://www.w3.org/TR/2001/REC-SVG-20010904/DTD/svg10.dtd">
<svg version="1.0" xmlns="http://www.w3.org/2000/svg" width="144px" height="126px" viewBox="0 0 1440 1260" preserveAspectRatio="xMidYMid meet">
<g id="layer101" fill="#341c00" stroke="none">
 <path d="M21 1238 c7 -13 22 -36 35 -53 12 -16 45 -76 73 -132 28 -56 72 -137 98 -180 44 -73 47 -82 47 -147 l0 -70 -65 -60 c-36 -34 -94 -98 -128 -143 -58 -75 -64 -87 -65 -132 -1 -27 -5 -47 -10 -44 -4 3 -5 -7 -2 -23 3 -16 6 -49 7 -74 2 -63 8 -80 28 -80 32 0 54 36 48 75 -4 25 2 59 18 107 39 115 43 110 48 -51 2 -93 6 -124 17 -131 10 -6 18 -5 25 3 6 7 17 16 26 19 14 5 17 28 21 132 4 140 12 155 74 156 29 0 32 -4 44 -45 7 -25 22 -58 34 -73 11 -14 21 -33 21 -40 0 -20 29 -37 50 -28 15 5 17 14 12 54 -3 26 -15 69 -27 96 -33 74 -25 133 27 189 40 43 40 44 38 118 -2 49 -11 101 -29 153 -14 43 -26 84 -26 90 0 7 -16 43 -35 80 -19 38 -35 75 -35 83 0 7 -14 43 -30 80 -17 36 -30 72 -30 79 0 11 -32 14 -160 14 l-161 0 12 -22z"/>
 <path d="M1100 1213 c-1 -141 -41 -359 -89 -483 -11 -30 -25 -90 -31 -132 -5 -43 -16 -91 -25 -107 -8 -17 -22 -56 -30 -88 -14 -54 -14 -59 2 -70 9 -7 22 -13 29 -13 19 0 83 90 95 133 9 36 12 38 37 32 15 -3 30 -10 34 -13 4 -4 3 -74 -4 -156 -9 -124 -9 -150 3 -157 8 -5 17 -9 21 -9 13 0 36 65 45 130 l9 65 13 -45 c15 -50 9 -118 -13 -153 -18 -28 -28 -75 -20 -88 4 -7 19 1 38 20 l31 30 3 -51 c1 -28 4 -54 7 -56 3 -3 18 7 34 22 23 23 29 25 34 12 8 -19 37 -21 37 -3 0 7 15 38 33 69 27 43 35 71 41 127 l6 72 -37 47 c-21 26 -41 49 -44 52 -10 9 -101 212 -115 259 -8 25 -14 62 -14 81 0 44 28 144 67 235 16 39 33 83 37 100 4 16 11 32 16 35 4 3 16 38 27 78 l20 72 -148 0 -149 0 0 -47z m257 -1045 c-2 -13 -4 -3 -4 22 0 25 2 35 4 23 2 -13 2 -33 0 -45z"/>
 </g>
<g id="layer102" fill="#bf996a" stroke="none">
 <path d="M37 1233 c9 -16 22 -35 29 -43 7 -8 35 -60 62 -115 28 -55 73 -139 100 -187 63 -108 66 -118 57 -186 -7 -54 -10 -59 -98 -147 -51 -50 -109 -119 -130 -153 -43 -70 -46 -107 -4 -43 15 22 31 41 36 41 4 0 13 10 19 23 6 12 11 16 11 8 1 -8 -17 -34 -40 -58 -33 -36 -38 -47 -28 -59 10 -12 9 -13 -6 -8 -15 6 -17 3 -13 -14 4 -12 2 -22 -3 -22 -5 0 -9 -20 -9 -45 0 -34 6 -50 25 -69 28 -28 39 -19 30 22 -8 41 31 160 62 186 14 12 34 29 44 39 25 23 24 13 -2 -22 -19 -25 -20 -38 -16 -111 4 -54 11 -88 21 -99 9 -10 16 -23 16 -29 0 -7 6 -12 14 -12 11 0 14 27 18 124 4 143 15 166 75 166 31 0 33 2 27 28 -4 15 -11 35 -16 46 -7 12 -7 16 0 12 6 -3 18 -32 28 -64 10 -31 26 -77 36 -101 16 -38 21 -42 42 -37 15 4 26 1 29 -7 3 -6 6 -3 6 7 1 11 -9 39 -20 63 -31 65 -23 132 23 200 40 59 54 120 39 179 -22 87 -62 210 -75 229 -7 11 -25 53 -39 93 -15 39 -36 90 -47 112 -11 21 -20 48 -20 60 0 19 -6 20 -150 20 l-150 0 17 -27z m228 -745 c-16 -6 -33 -16 -37 -22 -5 -8 -8 -7 -8 2 0 13 34 31 60 31 8 -1 2 -5 -15 -11z"/>
 <path d="M1110 1213 c-1 -134 -43 -381 -77 -446 -21 -42 -10 -43 24 -2 17 20 35 59 42 88 6 29 16 59 22 67 9 12 10 11 4 -5 -3 -11 -11 -42 -18 -68 -7 -30 -24 -64 -47 -90 -52 -59 -59 -76 -71 -168 -5 -45 -19 -99 -30 -121 -11 -21 -17 -42 -15 -47 3 -4 2 -21 -3 -37 -9 -34 -4 -54 14 -54 31 0 40 66 11 85 -17 12 -17 15 -4 15 9 0 23 -9 31 -20 18 -26 31 -12 47 53 7 26 14 47 15 47 2 0 24 -9 50 -20 42 -18 49 -26 83 -97 32 -69 37 -87 37 -155 -1 -60 -4 -81 -19 -97 -10 -11 -16 -27 -13 -34 3 -8 0 -20 -6 -26 -6 -6 -8 -11 -3 -11 4 0 14 6 22 14 11 11 11 16 1 19 -6 3 -2 6 9 6 23 1 79 75 69 91 -3 6 -1 10 4 10 6 0 11 7 11 16 0 14 -3 14 -15 4 -9 -7 -15 -8 -15 -2 0 5 7 13 16 16 17 6 16 42 -2 116 -4 19 1 15 20 -15 73 -116 82 -161 46 -221 -12 -18 -19 -44 -17 -58 4 -30 16 -46 18 -23 2 29 3 31 32 69 17 21 26 42 21 49 -4 8 -3 9 4 5 9 -5 12 6 12 38 0 24 3 52 7 62 5 13 3 15 -8 9 -11 -7 -12 -6 -2 6 10 13 5 24 -29 65 -73 88 -168 312 -168 396 0 47 34 162 73 248 13 30 28 71 32 90 4 19 12 41 18 49 6 7 12 18 13 25 1 6 9 32 17 59 l15 47 -88 0 c-61 0 -90 -4 -93 -12 -4 -10 -6 -10 -6 0 -1 8 -17 12 -46 12 l-45 0 0 -47z m15 -663 c4 -6 3 -9 -2 -8 -4 1 -19 -3 -33 -10 l-25 -13 24 20 c27 24 28 24 36 11z m154 -104 c4 -31 4 -56 -1 -56 -4 0 -8 17 -8 38 0 20 -3 48 -7 62 -3 14 -3 22 1 18 4 -3 11 -31 15 -62z m-278 45 c-8 -5 -10 -14 -6 -21 5 -9 4 -11 -3 -6 -18 11 -14 36 6 36 13 0 14 -2 3 -9z"/>
 <path d="M1136 408 c-3 -24 -8 -77 -11 -119 -5 -66 -3 -78 11 -83 23 -9 31 1 37 51 3 27 1 44 -7 47 -7 3 -7 5 2 5 17 1 15 63 -2 106 -8 19 -17 35 -20 35 -3 0 -7 -19 -10 -42z"/>
 <path d="M426 291 c-10 -15 12 -61 29 -61 8 0 15 8 15 18 0 23 -35 57 -44 43z"/>
 <path d="M1310 270 c-5 -72 -9 -92 -22 -108 -12 -14 -38 -74 -38 -89 0 -2 12 -2 28 0 35 5 61 55 60 118 0 42 -26 114 -28 79z"/>
 <path d="M1127 184 c-8 -8 1 -24 14 -24 5 0 9 7 9 15 0 15 -12 20 -23 9z"/>
 <path d="M164 150 c3 -14 6 -28 6 -32 0 -5 5 -8 11 -8 12 0 2 39 -13 55 -7 7 -9 2 -4 -15z"/>
 <path d="M20 143 c0 -5 4 -15 10 -23 11 -18 25 -7 17 15 -6 15 -27 21 -27 8z"/>
 <path d="M1275 62 c-13 -9 -15 -42 -4 -42 5 0 9 6 9 14 0 8 5 16 12 18 7 3 8 7 2 11 -5 3 -14 3 -19 -1z"/>
 </g>
<g id="layer103" fill="#eecfa9" stroke="none">
 <path d="M37 1233 c9 -16 22 -35 29 -43 7 -8 35 -60 62 -115 28 -55 73 -139 100 -187 63 -108 66 -118 57 -186 -7 -55 -10 -59 -100 -149 -95 -94 -130 -138 -100 -127 11 5 14 1 9 -12 -3 -11 1 -8 10 6 8 14 15 19 16 11 0 -8 -18 -34 -41 -58 -33 -36 -38 -47 -28 -59 10 -12 9 -13 -6 -8 -15 6 -17 3 -13 -14 4 -12 2 -22 -3 -22 -5 0 -9 -20 -9 -45 0 -34 6 -50 25 -69 28 -28 39 -19 30 22 -8 37 30 157 58 185 12 12 21 24 20 27 0 3 5 11 13 18 11 10 14 10 14 0 0 -9 3 -9 10 2 5 8 10 11 10 7 0 -5 -9 -21 -20 -35 -15 -19 -20 -39 -20 -76 2 -78 9 -106 25 -100 8 3 11 13 8 22 -4 14 -3 15 5 2 6 -8 9 -17 6 -21 -2 -4 0 -10 6 -14 17 -10 12 -35 -6 -28 -11 4 -12 8 -4 13 9 6 9 9 0 15 -27 17 -28 -12 -1 -36 l29 -25 4 123 4 124 32 30 c18 17 29 35 26 41 -4 6 -2 8 3 5 6 -4 16 0 22 7 10 11 8 16 -5 24 -10 6 -13 12 -6 16 14 8 16 4 47 -90 37 -109 42 -117 70 -110 14 4 25 1 28 -7 3 -6 6 -3 6 7 1 11 -9 39 -20 63 -31 65 -23 132 23 200 40 59 54 120 39 179 -22 87 -62 210 -75 229 -7 11 -25 53 -39 93 -15 39 -36 90 -47 112 -11 21 -20 48 -20 60 0 19 -6 20 -150 20 l-150 0 17 -27z m260 -579 c-3 -4 -2 -15 4 -25 8 -15 6 -17 -8 -12 -14 5 -16 3 -6 -7 9 -10 9 -16 -2 -26 -15 -16 -29 -19 -20 -5 3 5 1 13 -5 16 -6 4 -9 3 -8 -2 4 -14 -13 -53 -23 -53 -5 0 -4 10 3 23 7 12 12 25 13 30 0 4 4 6 8 5 8 -3 29 27 33 45 3 15 4 17 11 17 3 0 3 -3 0 -6z m6 -168 c10 -8 14 -17 9 -20 -5 -3 -15 1 -22 9 -14 16 -49 11 -62 -9 -5 -8 -8 -7 -8 2 0 12 33 30 55 31 6 0 18 -6 28 -13z"/>
 <path d="M1112 1224 c1 -25 6 -30 20 -26 14 3 18 -2 18 -26 0 -17 5 -34 11 -38 7 -4 8 -21 5 -43 -5 -26 -4 -32 3 -21 8 11 11 12 11 2 0 -8 -9 -16 -21 -19 -16 -4 -17 -8 -7 -14 7 -5 8 -9 2 -9 -6 0 -9 -15 -8 -35 2 -19 -2 -37 -8 -41 -7 -4 -6 -9 3 -15 11 -7 11 -9 1 -9 -7 0 -10 -4 -7 -10 3 -5 2 -10 -4 -10 -5 0 -15 -25 -22 -56 -9 -38 -24 -68 -49 -97 -52 -59 -59 -76 -71 -168 -5 -45 -19 -99 -29 -120 -24 -47 -25 -48 -1 -42 12 3 24 -3 33 -16 19 -27 30 -15 50 54 9 29 20 49 27 47 7 -1 10 2 7 7 -4 5 4 17 16 25 26 18 51 5 41 -22 -6 -15 -5 -15 10 -3 13 11 15 17 6 28 -10 11 -9 12 5 7 20 -8 20 -18 1 -34 -8 -7 -13 -16 -10 -20 3 -5 -5 -6 -17 -3 -22 5 -21 4 4 -18 15 -13 42 -55 60 -94 28 -60 32 -81 32 -147 0 -58 -4 -81 -17 -96 -24 -26 -21 -40 7 -35 27 5 81 77 71 93 -3 6 -2 10 3 10 15 0 13 78 -3 140 -8 30 -15 83 -17 116 -2 34 -6 60 -10 57 -5 -2 -8 0 -8 6 0 5 5 11 11 13 8 3 3 29 -15 80 -14 42 -26 96 -26 120 0 47 34 162 73 248 13 30 28 71 32 90 4 19 12 41 18 49 6 7 12 18 13 25 1 6 9 32 17 59 l15 47 -89 0 c-64 0 -89 -3 -89 -12 0 -10 -2 -10 -8 0 -6 8 -24 12 -50 10 -40 -3 -42 -4 -40 -34z m-111 -733 c-8 -5 -10 -14 -6 -21 5 -9 4 -11 -3 -6 -18 11 -14 36 6 36 13 0 14 -2 3 -9z m284 -248 c-2 -10 -4 -20 -4 -23 -1 -3 -5 2 -11 10 -6 9 -5 17 3 22 16 10 16 10 12 -9z"/>
 <path d="M1130 1115 c0 -8 7 -15 15 -15 8 0 15 7 15 15 0 8 -7 15 -15 15 -8 0 -15 -7 -15 -15z"/>
 <path d="M1284 489 c0 -10 4 -19 8 -19 4 0 8 -5 8 -11 0 -5 -4 -8 -9 -5 -11 7 -8 -21 4 -31 4 -4 5 -1 0 7 -6 11 -5 12 4 4 9 -8 9 -17 1 -36 -13 -27 -12 -29 45 -123 31 -50 32 -109 5 -150 -11 -16 -20 -39 -20 -50 1 -16 9 -11 41 24 22 25 37 51 35 58 -3 8 -1 11 4 8 6 -4 10 12 10 39 0 24 3 52 7 62 5 13 3 15 -8 9 -11 -7 -12 -6 -2 6 10 13 5 24 -29 65 -22 27 -52 73 -65 101 -27 58 -39 71 -39 42z m76 -151 c7 -11 7 -19 0 -23 -6 -4 -10 -3 -9 2 4 22 -3 34 -18 31 -13 -2 -18 4 -18 25 l-1 28 18 -23 c10 -13 23 -31 28 -40z"/>
 <path d="M1163 340 c-9 -25 -9 -30 3 -30 9 0 14 11 14 30 0 17 -1 30 -3 30 -1 0 -8 -13 -14 -30z"/>
 <path d="M26 344 c-10 -25 1 -29 14 -5 6 12 7 21 1 21 -5 0 -12 -7 -15 -16z"/>
 <path d="M1132 334 c-1 -17 -5 -51 -8 -76 -5 -37 -3 -46 12 -52 23 -9 30 1 37 52 4 36 3 42 -13 42 -14 0 -20 9 -23 33 l-4 32 -1 -31z"/>
 <path d="M1318 254 c8 -15 8 -24 0 -32 -9 -9 -8 -12 4 -12 19 0 17 36 -3 54 -9 8 -9 6 -1 -10z"/>
 <path d="M1330 195 c-1 -5 -2 -13 -1 -17 0 -5 -6 -8 -14 -8 -10 0 -13 -9 -10 -30 2 -16 -1 -33 -7 -36 -6 -4 -8 -2 -4 4 3 6 2 13 -4 17 -5 3 -10 1 -10 -5 0 -6 -4 -8 -10 -5 -5 3 -10 2 -10 -4 0 -5 -3 -17 -6 -26 -5 -13 -1 -15 22 -12 22 3 33 13 47 41 10 21 16 50 14 65 -2 14 -5 22 -7 16z"/>
 <path d="M1276 153 c-11 -11 -7 -20 9 -20 8 0 15 4 15 8 0 11 -16 20 -24 12z"/>
 </g>

</svg>