<!DOCTYPE svg PUBLIC "-//W3C//DTD SVG 20010904//EN" "http://www.w3.org/TR/2001/REC-SVG-20010904/DTD/svg10.dtd">
<svg version="1.0" xmlns="http://www.w3.org/2000/svg" width="59px" height="44px" viewBox="0 0 590 440" preserveAspectRatio="xMidYMid meet">
<g id="layer101" fill="#a63f1c" stroke="none">
 <path d="M224 348 c5 -23 1 -37 -13 -52 -11 -13 -21 -41 -24 -71 -2 -27 -8 -59 -11 -71 -10 -29 19 -57 50 -50 17 5 24 1 29 -13 7 -22 35 -35 56 -26 19 8 59 72 59 93 0 10 10 22 23 27 30 13 33 56 9 105 l-19 40 23 15 c43 28 27 35 -82 35 l-106 0 6 -32z"/>
 </g>
<g id="layer102" fill="#cf692f" stroke="none">
 <path d="M285 370 c-3 -6 1 -13 10 -16 19 -8 30 0 20 15 -8 14 -22 14 -30 1z"/>
 <path d="M337 361 c-3 -12 1 -22 10 -25 21 -8 22 -8 16 14 -8 28 -20 33 -26 11z"/>
 <path d="M233 358 c16 -44 16 -56 2 -68 -17 -14 -20 -40 -5 -40 12 0 -15 -46 -42 -73 -22 -22 -23 -41 -2 -62 11 -10 25 -14 40 -11 13 4 24 2 24 -3 0 -14 29 -41 45 -41 21 0 47 31 42 51 -3 10 4 26 14 35 10 9 19 23 19 30 0 7 9 16 20 19 23 7 25 19 8 66 -16 46 -36 60 -78 53 -32 -4 -36 -2 -47 26 -6 17 -19 30 -28 30 -10 0 -15 -6 -12 -12z m98 -173 c22 -25 19 -28 -19 -14 -26 9 -42 26 -46 49 -1 3 -5 11 -10 19 -12 18 54 -28 75 -54z m-94 -31 c1 -5 -2 -16 -7 -24 -12 -20 -35 2 -26 25 6 17 27 16 33 -1z m80 -40 c1 -5 -2 -16 -7 -24 -12 -20 -35 2 -26 25 6 17 27 16 33 -1z"/>
 </g>
<g id="layer103" fill="#b8c9b9" stroke="none">
 <path d="M227 233 c-4 -3 -7 -15 -7 -25 0 -10 -4 -18 -9 -18 -14 0 -41 -30 -41 -45 0 -18 27 -45 45 -45 18 0 45 28 45 45 0 8 -6 20 -14 27 -12 11 -12 15 0 29 12 14 12 18 1 27 -8 7 -17 9 -20 5z m10 -79 c3 -8 1 -20 -5 -26 -15 -15 -43 8 -35 28 7 19 32 18 40 -2z"/>
 <path d="M330 193 c1 -18 28 -44 35 -33 4 6 1 17 -5 25 -13 16 -30 20 -30 8z"/>
 <path d="M266 128 c-9 -12 -16 -26 -16 -30 0 -12 31 -38 45 -38 18 0 45 27 45 45 0 18 -28 45 -45 45 -8 0 -21 -10 -29 -22z m51 -14 c3 -8 1 -20 -5 -26 -15 -15 -43 8 -35 28 7 19 32 18 40 -2z"/>
 </g>

</svg>