<!DOCTYPE svg PUBLIC "-//W3C//DTD SVG 20010904//EN" "http://www.w3.org/TR/2001/REC-SVG-20010904/DTD/svg10.dtd">
<svg version="1.0" xmlns="http://www.w3.org/2000/svg" width="35px" height="46px" viewBox="0 0 350 460" preserveAspectRatio="xMidYMid meet">
<g id="layer101" fill="#040406" stroke="none">
 <path d="M90 273 l0 -158 30 -20 c19 -13 30 -29 30 -43 0 -19 5 -23 23 -20 13 2 23 11 25 23 1 11 16 29 32 40 l30 20 0 158 0 157 -85 0 -85 0 0 -157z"/>
 </g>
<g id="layer102" fill="#903131" stroke="none">
 <path d="M100 274 l0 -146 35 -34 c20 -19 33 -39 30 -44 -3 -6 1 -10 9 -10 10 0 16 9 16 24 0 32 10 56 22 56 6 0 7 -7 4 -16 -3 -9 -2 -12 5 -9 5 4 7 16 3 28 -6 19 -5 20 10 8 15 -12 16 -1 16 138 0 135 -7 178 -23 139 -4 -10 -6 -10 -6 0 -1 8 -20 12 -61 12 l-60 0 0 -146z"/>
 </g>
<g id="layer103" fill="#60a02f" stroke="none">
 <path d="M100 274 c0 -144 0 -147 26 -170 31 -29 60 -31 69 -4 3 11 11 20 17 20 5 0 7 -7 4 -16 -3 -9 -2 -12 5 -9 5 4 7 16 3 28 -6 19 -5 20 10 8 15 -12 16 -1 16 138 0 135 -7 178 -23 139 -4 -10 -6 -10 -6 0 -1 8 -20 12 -61 12 l-60 0 0 -146z m135 26 c0 -18 -6 -26 -23 -28 -24 -4 -38 18 -28 44 3 9 15 14 28 12 17 -2 23 -10 23 -28z"/>
 </g>
<g id="layer104" fill="#6a6774" stroke="none">
 <path d="M106 403 c-4 -9 -6 -76 -5 -147 1 -125 2 -132 26 -153 30 -28 60 -29 68 -3 3 11 11 20 17 20 5 0 7 -7 4 -16 -3 -9 -2 -12 5 -9 5 4 7 16 3 28 -6 19 -5 20 10 8 15 -12 16 -1 16 138 0 135 -7 178 -23 139 -4 -10 -6 -10 -6 0 -1 8 -19 12 -55 12 -42 0 -55 -4 -60 -17z m129 -103 c0 -18 -6 -26 -23 -28 -24 -4 -38 18 -28 44 3 9 15 14 28 12 17 -2 23 -10 23 -28z m-70 -20 c0 -18 -6 -26 -23 -28 -24 -4 -38 18 -28 44 3 9 15 14 28 12 17 -2 23 -10 23 -28z"/>
 </g>
<g id="layer105" fill="#849199" stroke="none">
 <path d="M106 403 c-4 -9 -6 -76 -5 -147 1 -125 2 -132 26 -153 24 -23 63 -31 63 -13 0 5 -8 14 -17 19 -16 9 -15 10 5 11 14 0 21 4 17 11 -4 6 -1 10 6 8 49 -6 49 -7 49 131 0 109 -2 130 -15 130 -8 0 -15 6 -15 13 0 8 -4 7 -11 -3 -8 -11 -12 -12 -16 -2 -8 19 -80 15 -87 -5z m129 -103 c0 -18 -6 -26 -23 -28 -24 -4 -38 18 -28 44 3 9 15 14 28 12 17 -2 23 -10 23 -28z m-70 -20 c0 -18 -6 -26 -23 -28 -24 -4 -38 18 -28 44 3 9 15 14 28 12 17 -2 23 -10 23 -28z"/>
 </g>
<g id="layer106" fill="#acbdf5" stroke="none">
 <path d="M140 410 c0 -5 -9 -10 -20 -10 -19 0 -20 -7 -20 -129 0 -127 0 -130 23 -133 12 -2 22 -10 23 -18 2 -33 4 -40 14 -40 5 0 7 15 5 33 -3 17 -3 26 1 20 3 -7 12 -13 20 -13 9 0 12 5 9 10 -4 6 7 10 24 10 l31 0 0 130 0 130 -29 0 c-16 0 -32 6 -34 13 -4 9 -8 8 -16 -3 -7 -10 -11 -11 -11 -2 0 6 -4 12 -10 12 -5 0 -10 -4 -10 -10z m95 -110 c0 -18 -6 -26 -23 -28 -24 -4 -38 18 -28 44 3 9 15 14 28 12 17 -2 23 -10 23 -28z m-70 -20 c0 -18 -6 -26 -23 -28 -24 -4 -38 18 -28 44 3 9 15 14 28 12 17 -2 23 -10 23 -28z m31 -61 c10 -17 -13 -36 -27 -22 -12 12 -4 33 11 33 5 0 12 -5 16 -11z"/>
 </g>
<g id="layer107" fill="#ffffff" stroke="none">
 <path d="M151 413 c-1 -7 -12 -13 -26 -13 l-25 0 0 -130 0 -130 50 0 c42 0 50 3 50 19 0 10 -10 26 -22 34 l-23 16 25 20 c23 18 23 21 10 46 -11 21 -12 30 -2 45 7 11 12 33 12 50 0 23 -5 30 -19 30 -11 0 -22 6 -24 13 -4 10 -6 10 -6 0z m14 -133 c0 -18 -6 -26 -23 -28 -24 -4 -38 18 -28 44 3 9 15 14 28 12 17 -2 23 -10 23 -28z"/>
 </g>

</svg>