<!DOCTYPE svg PUBLIC "-//W3C//DTD SVG 20010904//EN" "http://www.w3.org/TR/2001/REC-SVG-20010904/DTD/svg10.dtd">
<svg version="1.0" xmlns="http://www.w3.org/2000/svg" width="35px" height="46px" viewBox="0 0 350 460" preserveAspectRatio="xMidYMid meet">
<g id="layer101" fill="#120b15" stroke="none">
<path d="M119 444 c-10 -12 -14 -57 -16 -163 -2 -135 0 -150 19 -181 12 -19 22 -46 22 -60 1 -21 6 -25 31 -25 25 0 30 4 31 25 0 14 10 41 22 60 19 31 21 46 19 181 -3 169 -7 179 -72 179 -27 0 -47 -6 -56 -16z"/>
</g>
<g id="layer102" fill="#5463c5" stroke="none">
<path d="M123 438 c-4 -7 -9 -78 -10 -158 -2 -134 -1 -149 19 -180 12 -19 21 -45 19 -57 -2 -19 2 -23 24 -23 22 0 26 4 24 23 -2 12 7 38 19 57 20 31 21 46 19 180 -1 80 -6 151 -10 158 -11 16 -93 16 -104 0z"/>
</g>
<g id="layer103" fill="#57aec9" stroke="none">
<path d="M129 437 c-12 -10 -15 -32 -15 -109 l1 -98 48 0 47 0 1 53 c1 28 1 63 1 77 -1 14 3 37 8 52 8 26 -2 49 -14 30 -6 -10 -36 -9 -51 0 -6 3 -17 1 -26 -5z"/>
<path d="M226 314 c-8 -22 -7 -57 2 -72 5 -7 8 9 8 38 -1 27 -2 50 -2 50 -1 0 -5 -7 -8 -16z"/>
<path d="M110 143 c0 -5 9 -23 20 -40 14 -24 24 -31 37 -26 24 8 43 33 43 55 0 15 -8 18 -50 18 -27 0 -50 -3 -50 -7z"/>
<path d="M213 109 c-12 -21 -17 -37 -12 -33 11 6 42 64 37 69 -2 2 -13 -14 -25 -36z"/>
<path d="M155 60 c-4 -6 6 -10 22 -10 22 0 25 2 13 10 -19 12 -27 12 -35 0z"/>
</g>
<g id="layer104" fill="#acbdf5" stroke="none">
<path d="M124 432 c-15 -9 -12 -80 5 -111 8 -14 10 -36 6 -57 l-6 -34 41 0 40 0 0 84 c0 46 3 91 6 100 5 13 0 15 -25 12 -17 -2 -34 0 -37 5 -6 11 -15 11 -30 1z"/>
<path d="M137 163 c18 -2 50 -2 70 0 21 2 7 4 -32 4 -38 0 -55 -2 -38 -4z"/>
<path d="M130 146 c0 -3 4 -16 10 -30 17 -46 70 -31 70 20 0 10 -12 14 -40 14 -22 0 -40 -2 -40 -4z"/>
</g>
<g id="layer105" fill="#ffffff" stroke="none">
<path d="M120 410 c0 -5 14 -10 32 -10 36 0 35 4 -4 14 -17 4 -28 2 -28 -4z"/>
<path d="M120 380 c0 -5 14 -10 32 -10 36 0 35 4 -4 14 -17 4 -28 2 -28 -4z"/>
<path d="M120 350 c0 -5 14 -10 32 -10 36 0 35 4 -4 14 -17 4 -28 2 -28 -4z"/>
<path d="M140 245 c0 -8 9 -15 20 -15 11 0 20 7 20 15 0 8 -9 15 -20 15 -11 0 -20 -7 -20 -15z"/>
<path d="M133 163 c15 -2 37 -2 50 0 12 2 0 4 -28 4 -27 0 -38 -2 -22 -4z"/>
<path d="M140 132 c0 -19 18 -42 32 -42 4 0 8 14 8 30 0 23 -4 30 -20 30 -13 0 -20 -7 -20 -18z"/>
</g>


</svg>